<svg viewBox="0 0 633 37" xmlns="http://www.w3.org/2000/svg" xmlns:xlink="http://www.w3.org/1999/xlink" id="Layer_1" fill="#2B34A5" xml:space="preserve" overflow="hidden"><style>
.MsftOfcResponsive_Fill_c00000 {
 fill:#C00000; 
}
</style>
<g id="change1_1"><path d="M568.5 37C552.1 37 543.9 28.1 535.9 19.5 528 11 520.6 3 505.5 3 490.4 3 483 11 475.1 19.5 467.1 28.1 458.9 37 442.5 37 426.1 37 417.9 28.1 409.9 19.5 402 11 394.6 3 379.5 3 364.4 3 357 11 349.1 19.5 341.1 28.1 332.9 37 316.5 37 300.1 37 291.9 28.1 283.9 19.5 276 11 268.6 3 253.5 3 238.4 3 231 11 223.1 19.5 215.1 28.1 206.9 37 190.5 37 174.1 37 165.9 28.1 157.9 19.5 150 11 142.6 3 127.5 3 112.4 3 105 11 97.1 19.5 89.1 28.1 80.9 37 64.5 37 48.1 37 39.9 28.1 31.9 19.5 24 11 16.6 3 1.5 3 0.7 3-2.84217e-14 2.3-2.84217e-14 1.5-2.84217e-14 0.7 0.7 0 1.5 0 17.9 0 26.1 8.9 34.1 17.5 42 26 49.4 34 64.5 34 79.6 34 87 26 94.9 17.5 102.9 8.9 111.1 0 127.5 0 143.9 0 152.1 8.9 160.1 17.5 168 26 175.4 34 190.5 34 205.6 34 213 26 220.9 17.5 228.9 8.9 237.1 0 253.5 0 269.9 0 278.1 8.9 286.1 17.5 294 26 301.4 34 316.5 34 331.6 34 339 26 346.9 17.5 354.9 8.9 363.1 0 379.5 0 395.9 0 404.1 8.9 412.1 17.5 420 26 427.4 34 442.5 34 457.6 34 465 26 472.9 17.5 480.9 8.9 489.1 0 505.5 0 521.9 0 530.1 8.9 538.1 17.5 546 26 553.4 34 568.5 34 583.6 34 591 26 598.9 17.5 606.9 8.9 615.1 0 631.5 0 632.3 0 633 0.7 633 1.5 633 2.3 632.3 3 631.5 3 616.4 3 609 11 601.1 19.5 593.1 28.1 584.9 37 568.5 37Z" class="MsftOfcResponsive_Fill_c00000" fill="#953735"/></g></svg>